# File created by Blade
# Date/Time:  Wed Jan 21 17:41:14 2015
# Frame Rate: 120.000 fps
#------------------------------------------------------
:FULLY-SPECIFIED
:DEGREES
1825
root 13.095107 35.832589 -18.116121 -550.639703 82.865030 -555.835453
Spine -11.892056 -2.684535 -4.544240
Head 8.409249 -2.043613 2.559495
LeftShoulder -10.069980 -31.281068 18.403788
LeftArm 9.238351 4.849438 -8.975496
LeftForeArm 9.659624 0.000000 -2.698713
LeftHand -6.378324 -0.000000 8.327554
LeftHandThumb1 -26.253704 0.000000 33.147579
RightShoulder -11.427098 -3.841732 -8.961627
RightArm 6.151328 43.740774 18.380760
RightForeArm -33.788198 0.000000 6.791892
RightHand -8.650366 -0.000000 -13.962498
RightHandThumb1 -24.326973 -0.000000 -32.862282
LeftUpLeg -10.357799 8.110537 2.498692
LeftLeg 16.274335 -0.000000 -0.000000
LeftFoot -30.283865 33.646078 -15.328651
LeftToeBase 10.860751 -0.000000 -0.000000
RightUpLeg -1.878156 -6.158100 -0.338579
RightLeg 9.245312 -0.000000 -0.000000
RightFoot -26.893911 -21.686782 18.572230
RightToeBase 21.218447 -0.000000 -0.000000
1826
root 13.178821 35.840137 -18.185775 -552.100194 82.898817 -557.314651
Spine -12.124263 -2.570858 -4.837771
Head 8.555946 -2.141627 2.557956
LeftShoulder -10.162195 -31.376874 18.456249
LeftArm 9.565264 5.242570 -8.750340
LeftForeArm 9.581386 0.000000 -2.608623
LeftHand -6.361659 -0.000000 8.327482
LeftHandThumb1 -26.253704 0.000000 33.147579
RightShoulder -11.350270 -3.818594 -9.059787
RightArm 6.146856 43.532926 18.173436
RightForeArm -33.994217 -0.000000 6.874836
RightHand -8.711058 -0.000000 -13.834342
RightHandThumb1 -24.326973 -0.000000 -32.862282
LeftUpLeg -10.197962 7.808902 2.590715
LeftLeg 14.405778 -0.000000 -0.000000
LeftFoot -28.966787 33.480122 -15.080884
LeftToeBase 11.179149 -0.000000 -0.000000
RightUpLeg -1.408170 -6.017210 -0.597565
RightLeg 8.574361 -0.000000 -0.000000
RightFoot -26.792490 -21.943744 18.523331
RightToeBase 21.231005 -0.000000 -0.000000
1827
root 13.262739 35.843426 -18.257585 -553.631735 82.961822 -558.835979
Spine -12.307450 -2.370153 -5.150786
Head 8.662606 -2.264313 2.575894
LeftShoulder -10.206120 -31.315237 18.453687
LeftArm 9.981609 5.294718 -8.568582
LeftForeArm 9.779177 -0.000000 -2.614404
LeftHand -6.337863 -0.000000 8.424087
LeftHandThumb1 -26.253704 0.000000 33.147579
RightShoulder -11.364169 -3.851809 -9.138041
RightArm 6.222150 43.418610 18.047746
RightForeArm -34.123158 -0.000000 6.945460
RightHand -8.642012 -0.000000 -13.944667
RightHandThumb1 -24.326973 -0.000000 -32.862282
LeftUpLeg -9.983356 7.541181 2.694083
LeftLeg 12.577841 -0.000000 -0.000000
LeftFoot -27.442501 33.196335 -14.869424
LeftToeBase 11.883051 -0.000000 -0.000000
RightUpLeg -0.973852 -5.959133 -0.860871
RightLeg 8.028982 -0.000000 -0.000000
RightFoot -26.733948 -22.070355 18.500873
RightToeBase 21.308721 -0.000000 -0.000000
1828
root 13.346664 35.843699 -18.338297 -555.504923 83.038906 -560.671022
Spine -12.454943 -2.181719 -5.474784
Head 8.770054 -2.365433 2.595847
LeftShoulder -10.227471 -31.457661 18.474108
LeftArm 10.252959 5.598379 -8.351616
LeftForeArm 9.895238 -0.000000 -2.591058
LeftHand -6.270561 -0.000000 8.528441
LeftHandThumb1 -26.253704 0.000000 33.147579
RightShoulder -11.343403 -3.898704 -9.197564
RightArm 6.296875 43.239274 17.866337
RightForeArm -34.203228 -0.000000 6.982934
RightHand -8.585807 -0.000000 -14.008308
RightHandThumb1 -24.326973 -0.000000 -32.862282
LeftUpLeg -9.699568 7.212370 2.762959
LeftLeg 10.801786 -0.000000 -0.000000
LeftFoot -25.780253 32.808096 -14.606091
LeftToeBase 12.561546 -0.000000 -0.000000
RightUpLeg -0.494990 -5.945252 -1.172562
RightLeg 7.443023 -0.000000 -0.000000
RightFoot -26.633723 -22.156789 18.477309
RightToeBase 21.145243 -0.000000 -0.000000
1829
root 13.428572 35.837959 -18.419229 -557.026818 83.139047 -562.125322
Spine -12.522659 -1.962827 -5.730497
Head 8.746689 -2.471372 2.609833
LeftShoulder -10.268946 -31.496862 18.478995
LeftArm 10.573300 5.746958 -8.157820
LeftForeArm 9.965732 -0.000000 -2.584841
LeftHand -6.212394 -0.000000 8.574612
LeftHandThumb1 -26.253704 0.000000 33.147579
RightShoulder -11.418600 -3.966043 -9.236294
RightArm 6.516656 43.060712 17.750360
RightForeArm -34.285528 -0.000000 6.970062
RightHand -8.581748 -0.000000 -13.979088
RightHandThumb1 -24.326973 -0.000000 -32.862282
LeftUpLeg -9.387217 6.880753 2.893900
LeftLeg 9.162927 -0.000000 -0.000000
LeftFoot -23.942283 32.277246 -13.995638
LeftToeBase 13.125435 -0.000000 -0.000000
RightUpLeg -0.044528 -5.874715 -1.423717
RightLeg 6.967305 -0.000000 -0.000000
RightFoot -26.636298 -22.327314 18.339153
RightToeBase 21.423979 -0.000000 -0.000000
